<svg xmlns="http://www.w3.org/2000/svg" viewBox="0 0 512 512">
  <defs>
    <linearGradient id="bg" x1="0" y1="0" x2="0" y2="1">
      <stop offset="0" stop-color="#1a1614"/>
      <stop offset="1" stop-color="#0a0908"/>
    </linearGradient>
    <radialGradient id="glow" cx="0.5" cy="0.4" r="0.6">
      <stop offset="0" stop-color="#f9a826" stop-opacity="0.35"/>
      <stop offset="1" stop-color="#f9a826" stop-opacity="0"/>
    </radialGradient>
  </defs>
  <rect width="512" height="512" rx="112" fill="url(#bg)"/>
  <rect width="512" height="512" rx="112" fill="url(#glow)"/>
  <g fill="#2a2622">
    <rect x="28" y="60" width="18" height="28" rx="3"/>
    <rect x="28" y="120" width="18" height="28" rx="3"/>
    <rect x="28" y="180" width="18" height="28" rx="3"/>
    <rect x="28" y="240" width="18" height="28" rx="3"/>
    <rect x="28" y="300" width="18" height="28" rx="3"/>
    <rect x="28" y="360" width="18" height="28" rx="3"/>
    <rect x="28" y="420" width="18" height="28" rx="3"/>
    <rect x="466" y="60" width="18" height="28" rx="3"/>
    <rect x="466" y="120" width="18" height="28" rx="3"/>
    <rect x="466" y="180" width="18" height="28" rx="3"/>
    <rect x="466" y="240" width="18" height="28" rx="3"/>
    <rect x="466" y="300" width="18" height="28" rx="3"/>
    <rect x="466" y="360" width="18" height="28" rx="3"/>
    <rect x="466" y="420" width="18" height="28" rx="3"/>
  </g>
  <text x="256" y="365" font-family="Instrument Serif, Georgia, serif" font-size="340" font-style="italic" font-weight="400" fill="#f9a826" text-anchor="middle" letter-spacing="-0.05em">M</text>
</svg>
